<?xml version="1.0" standalone="no"?>
<!DOCTYPE svg PUBLIC "-//W3C//DTD SVG 20010904//EN"
 "http://www.w3.org/TR/2001/REC-SVG-20010904/DTD/svg10.dtd">
<svg version="1.0" xmlns="http://www.w3.org/2000/svg"
 width="510.000000pt" height="155.000000pt" viewBox="0 0 510.000000 155.000000"
 preserveAspectRatio="xMidYMid meet">

<g transform="translate(0.000000,155.000000) scale(0.100000,-0.100000)"
fill="#FFFFFF" stroke="none">
<path d="M242 1407 c-11 -12 -178 -533 -184 -572 -3 -18 3 -20 62 -23 89 -3
110 -9 110 -31 0 -10 -47 -163 -105 -340 -58 -177 -103 -326 -100 -331 4 -6
94 -10 225 -10 l219 0 19 25 c10 13 25 46 31 72 28 109 87 268 100 268 7 0 66
-78 131 -174 66 -96 125 -178 132 -182 20 -13 455 -11 463 1 4 6 0 21 -8 33
-9 12 -77 110 -151 217 -75 107 -136 204 -136 216 0 13 13 28 40 43 116 65
210 193 225 307 8 66 -10 164 -43 234 -58 120 -205 226 -329 237 l-60 5 -102
-147 c-56 -81 -100 -153 -98 -160 4 -9 24 -11 77 -7 69 5 72 4 68 -16 -5 -35
-483 -669 -486 -647 -1 11 43 132 98 269 78 194 98 251 89 262 -7 9 -32 14
-68 14 -69 0 -86 9 -76 41 4 12 45 104 90 202 46 99 81 186 78 193 -7 19 -295
20 -311 1z"/>
<path d="M4040 1357 c-67 -23 -99 -111 -65 -177 22 -42 53 -60 107 -60 66 0
108 37 115 101 11 98 -67 166 -157 136z"/>
<path d="M3410 1185 l0 -164 -57 -3 -58 -3 -3 -87 -3 -88 61 0 60 0 0 -233 c0
-259 7 -305 59 -368 57 -69 156 -96 284 -79 113 16 107 10 107 101 l0 78 -77
-1 c-146 -3 -155 14 -161 295 l-4 207 121 0 121 0 0 90 0 90 -120 0 -120 0 0
165 0 165 -105 0 -105 0 0 -165z"/>
<path d="M4297 1343 c-10 -9 -9 -1173 1 -1173 65 -4 190 -6 200 -2 8 3 12 31
12 96 l0 91 79 79 c43 43 83 76 89 72 5 -3 53 -77 107 -163 54 -87 104 -163
112 -170 16 -12 186 -13 199 0 15 15 -20 85 -142 282 -67 110 -126 208 -129
217 -5 13 30 57 134 168 78 82 141 157 141 165 0 12 -19 15 -107 15 l-108 0
-187 -187 -188 -188 0 353 0 352 -103 0 c-57 0 -107 -3 -110 -7z"/>
<path d="M1790 1015 c-137 -38 -243 -123 -301 -242 -33 -65 -34 -72 -34 -183
0 -110 2 -118 33 -178 98 -189 296 -285 509 -248 169 29 300 139 354 294 33
95 25 231 -18 317 -50 99 -154 189 -261 227 -76 27 -209 33 -282 13z m235
-203 c87 -45 138 -124 137 -216 0 -106 -52 -186 -144 -226 -112 -49 -244 -17
-311 75 -40 55 -49 81 -49 145 -1 112 68 204 182 241 41 14 142 3 185 -19z"/>
<path d="M2685 1010 c-73 -23 -141 -78 -166 -134 -26 -57 -25 -155 1 -206 36
-70 112 -114 270 -154 176 -45 200 -59 200 -112 0 -68 -85 -96 -224 -75 -44 7
-108 23 -143 36 l-63 24 -40 -78 -39 -79 49 -21 c82 -35 179 -53 290 -54 214
-1 333 69 360 212 12 64 -1 131 -35 183 -33 50 -123 92 -287 134 -106 27 -138
39 -156 60 -25 29 -23 56 9 89 17 17 32 20 122 20 91 -1 155 -12 231 -41 10
-4 22 12 40 52 46 101 47 99 -31 122 -149 46 -289 53 -388 22z"/>
<path d="M3980 596 c0 -234 3 -426 8 -428 4 -2 51 -2 105 0 l97 3 -2 422 -3
422 -102 3 -103 3 0 -425z"/>
</g>
</svg>
